<svg width="181" height="39" viewBox="0 0 181 39" fill="none" xmlns="http://www.w3.org/2000/svg">
<g opacity="0.35">
<path fill-rule="evenodd" clip-rule="evenodd" d="M14.3197 38.0723C24.4425 40.5964 34.694 34.4365 37.2174 24.315C39.7409 14.1928 33.5816 3.93955 23.4595 1.41609C13.3397 -1.10736 3.08817 5.05308 0.565894 15.1758C-1.95874 25.2968 4.20112 35.5489 14.3197 38.0723ZM23.0707 12.2855C25.6881 13.1871 27.6022 14.5386 27.2261 17.0526C26.9539 18.8929 25.9337 19.7839 24.5792 20.0962C26.4391 21.0645 27.3855 22.5494 26.4839 25.1236C25.3651 28.3208 22.707 28.5906 19.1722 27.9217L18.3143 31.3597L16.2413 30.8431L17.088 27.4511C16.5507 27.3177 16.0016 27.1759 15.436 27.0224L14.5864 30.4303L12.5158 29.9137L13.3737 26.4692C13.1802 26.4197 12.9855 26.3689 12.7894 26.3178C12.4948 26.2409 12.1971 26.1633 11.8958 26.0878L9.19821 25.4153L10.2273 23.0424C10.2273 23.0424 11.7547 23.4486 11.7341 23.4185C12.3209 23.5638 12.5813 23.1812 12.684 22.9261L14.0397 17.4913C14.0905 17.5035 14.1402 17.516 14.1882 17.528C14.2122 17.534 14.2357 17.5399 14.2587 17.5456C14.1761 17.5125 14.1011 17.4913 14.0432 17.4765L15.0103 13.5969C15.0357 13.1564 14.884 12.6008 14.0444 12.3912C14.0769 12.3694 12.5388 12.0169 12.5388 12.0169L13.0903 9.80282L15.9491 10.5166L15.9467 10.5273C16.3765 10.6341 16.8194 10.7357 17.2704 10.8384L18.12 7.43406L20.1918 7.95067L19.3593 11.2883C19.9155 11.4153 20.4752 11.5434 21.0202 11.6792L21.8468 8.36338L23.9197 8.88L23.0707 12.2855ZM16.5138 24.6328C18.2053 25.0796 21.902 26.056 22.4897 23.6942C23.092 21.2794 19.5067 20.4749 17.7573 20.0824C17.5618 20.0385 17.3892 19.9998 17.248 19.9645L16.1097 24.5279C16.2257 24.5567 16.3616 24.5926 16.5138 24.6328ZM18.1088 17.9647C19.519 18.341 22.5951 19.1619 23.1309 17.0154C23.6781 14.8198 20.6884 14.158 19.2283 13.8347C19.064 13.7984 18.9191 13.7663 18.8008 13.7368L17.7687 17.8756C17.8662 17.8999 17.9806 17.9305 18.1088 17.9647Z" fill="white"/>
<path d="M97.3933 27.9223C97.3933 25.756 97.744 23.7131 98.4448 21.8008C99.1444 19.8866 100.152 18.2128 101.46 16.7763C102.763 15.3469 104.351 14.2145 106.219 13.3832C108.079 12.5566 110.162 12.1397 112.457 12.1397C113.893 12.1397 115.176 12.2755 116.305 12.5477C117.439 12.8223 118.464 13.1771 119.392 13.6223L116.951 19.1722C116.313 18.9136 115.651 18.6857 114.967 18.4791C114.282 18.2683 113.446 18.1667 112.457 18.1667C110.095 18.1667 108.227 18.9809 106.838 20.604C105.453 22.2282 104.756 24.4146 104.756 27.1571C104.756 28.7825 105.107 30.0968 105.81 31.1023C106.511 32.1077 107.804 32.6078 109.682 32.6078C110.609 32.6078 111.504 32.511 112.36 32.3221C113.224 32.1308 113.986 31.8899 114.657 31.6053L115.186 37.2946C114.29 37.6418 113.303 37.9553 112.22 38.2298C111.135 38.4949 109.843 38.6325 108.346 38.6325C106.368 38.6325 104.694 38.3432 103.325 37.7734C101.955 37.1948 100.824 36.4267 99.9321 35.4537C99.0358 34.4783 98.3922 33.3394 97.9943 32.0322C97.5964 30.7262 97.3933 29.354 97.3933 27.9223ZM128.833 38.6325C127.144 38.6325 125.677 38.3751 124.432 37.8655C123.191 37.356 122.163 36.641 121.35 35.714C120.536 34.7918 119.927 33.6989 119.509 32.4396C119.092 31.1808 118.891 29.7868 118.891 28.2594C118.891 26.3435 119.199 24.4281 119.82 22.5181C120.439 20.604 121.357 18.8841 122.572 17.3555C123.778 15.8245 125.265 14.5728 127.016 13.5969C128.766 12.6274 130.778 12.1397 133.038 12.1397C134.697 12.1397 136.156 12.3977 137.418 12.9073C138.674 13.4156 139.708 14.1365 140.526 15.0588C141.335 15.9857 141.949 17.0739 142.363 18.335C142.779 19.5914 142.984 20.9889 142.984 22.5175C142.984 24.4276 142.681 26.3429 142.079 28.2588C141.476 30.1653 140.581 31.8893 139.4 33.4214C138.222 34.95 136.748 36.2011 134.978 37.173C133.211 38.1448 131.161 38.6325 128.833 38.6325ZM55.3671 12.282C56.8993 12.282 58.223 12.5566 59.3353 13.0956C60.453 13.64 61.3752 14.3733 62.115 15.2955C62.8448 16.2225 63.388 17.3059 63.7387 18.5476C64.087 19.7928 64.2618 21.1312 64.2618 22.5642C64.2618 24.7653 63.8586 26.8447 63.0444 28.8049C62.2302 30.7681 61.1255 32.4709 59.7203 33.9233C58.3163 35.374 56.6584 36.5176 54.7466 37.3625C52.8378 38.208 50.7624 38.6307 48.5342 38.6307C48.2461 38.6307 47.7395 38.6224 47.0239 38.6077C46.3083 38.5929 45.4858 38.5191 44.5648 38.3945C43.6378 38.2652 42.6577 38.0739 41.6227 37.8177C40.5883 37.5662 39.6059 37.2137 38.6807 36.7662L46.9536 2.00457L54.3634 0.856201L51.4013 13.1919C52.0354 12.9061 52.6742 12.6847 53.3119 12.5235C53.9495 12.3647 54.6344 12.282 55.3671 12.282ZM89.7662 12.814H97.705L96.2715 18.6462H88.3805L86.2786 27.4434C86.0849 28.1767 85.9751 28.8616 85.9444 29.4981C85.9096 30.1375 85.9905 30.6866 86.1818 31.1489C86.3719 31.6124 86.7137 31.9696 87.2097 32.2223C87.7033 32.4791 88.41 32.6084 89.337 32.6084C90.1004 32.6084 90.8443 32.5358 91.5634 32.3917C92.2784 32.25 93.0029 32.0528 93.7362 31.7948L94.264 37.2479C93.3075 37.5987 92.2719 37.9004 91.1561 38.1542C90.0384 38.4117 88.7152 38.5357 87.1861 38.5357C84.9873 38.5357 83.2828 38.2092 82.0683 37.5591C80.8556 36.9043 79.9983 36.0098 79.4852 34.8774C78.9792 33.7491 78.7531 32.4484 78.8163 30.983C78.8818 29.514 79.1032 27.9701 79.4852 26.3441L84.1737 6.54904L91.5865 5.40067L89.7662 12.814ZM71.9461 37.9653H64.8688L70.8456 12.8152H77.9714L71.9461 37.9653ZM150.696 37.9653H143.613L149.59 12.8152H156.719L150.696 37.9653ZM161.82 13.9588C162.357 13.8018 162.957 13.6128 163.609 13.4074C164.264 13.2019 164.996 13.0106 165.813 12.8382C166.621 12.6605 167.533 12.5164 168.537 12.4048C169.54 12.2909 170.683 12.2354 171.953 12.2354C175.685 12.2354 178.258 13.3223 179.679 15.4898C181.098 17.6572 181.344 20.6235 180.423 24.3833L177.167 37.9629H170.043L173.199 24.669C173.391 23.8389 173.542 23.0365 173.654 22.2524C173.766 21.4755 173.76 20.7906 173.628 20.1978C173.503 19.6121 173.206 19.1327 172.746 18.7613C172.279 18.3958 171.574 18.2122 170.617 18.2122C169.694 18.2122 168.755 18.3114 167.797 18.5027L163.158 37.9624H156.031L161.82 13.9588ZM49.1518 32.7525C50.2677 32.7525 51.3192 32.4779 52.307 31.9389C53.2977 31.3992 54.1526 30.6707 54.8688 29.7632C55.585 28.8516 56.1518 27.8248 56.5651 26.6777C56.9784 25.5305 57.1874 24.3337 57.1874 23.0885C57.1874 21.5587 56.9317 20.3655 56.4222 19.5029C55.9127 18.6438 54.9698 18.2116 53.6006 18.2116C53.1519 18.2116 52.5738 18.2972 51.8571 18.4501C51.1379 18.6125 50.4944 18.9496 49.9175 19.4568L46.7635 32.5571C46.9536 32.5907 47.1219 32.6226 47.2654 32.6527C47.4059 32.6852 47.5612 32.7082 47.7159 32.7241C47.8794 32.7424 48.0666 32.7519 48.2927 32.7519C48.5188 32.7519 48.8011 32.7525 49.1518 32.7525ZM132.37 18.1673C131.321 18.1673 130.394 18.472 129.6 19.0736C128.802 19.6823 128.133 20.4475 127.593 21.3704C127.048 22.2973 126.643 23.3081 126.37 24.4069C126.099 25.508 125.966 26.5489 125.966 27.5379C125.966 29.1338 126.223 30.3766 126.729 31.2711C127.243 32.1609 128.164 32.6084 129.504 32.6084C130.557 32.6084 131.479 32.3061 132.278 31.698C133.071 31.094 133.741 30.3282 134.284 29.4036C134.826 28.4814 135.234 27.4676 135.508 26.3671C135.775 25.2695 135.912 24.2227 135.912 23.2355C135.912 21.6437 135.655 20.3979 135.145 19.5046C134.635 18.6149 133.709 18.1673 132.37 18.1673ZM75.3901 9.75089C74.4023 9.75089 73.5066 9.45686 72.7119 8.86762C71.9107 8.28192 71.5139 7.38035 71.5139 6.16526C71.5139 5.49691 71.6497 4.86988 71.919 4.27828C72.1923 3.68786 72.5495 3.17951 72.9971 2.74732C73.444 2.31867 73.9618 1.97623 74.5499 1.71822C75.1415 1.46433 75.7709 1.33739 76.4416 1.33739C77.4288 1.33739 78.3197 1.63142 79.1174 2.22066C79.9121 2.81285 80.3118 3.71443 80.3118 4.92302C80.3118 5.59374 80.1766 6.22312 79.905 6.81354C79.6352 7.40396 79.278 7.91232 78.8304 8.3445C78.387 8.77374 77.8645 9.115 77.2776 9.37066C76.6854 9.62867 76.0584 9.75089 75.3901 9.75089ZM154.135 9.75089C153.147 9.75089 152.252 9.45686 151.459 8.86762C150.662 8.28192 150.262 7.38035 150.262 6.16526C150.262 5.49691 150.399 4.86988 150.669 4.27828C150.939 3.68786 151.299 3.17951 151.746 2.74732C152.191 2.31867 152.713 1.97623 153.3 1.71822C153.888 1.46433 154.518 1.33739 155.186 1.33739C156.176 1.33739 157.069 1.63142 157.865 2.22066C158.662 2.81285 159.064 3.71443 159.064 4.92302C159.064 5.59374 158.921 6.22312 158.653 6.81354C158.386 7.40396 158.026 7.91232 157.581 8.3445C157.132 8.77374 156.616 9.115 156.028 9.37066C155.435 9.62867 154.807 9.75089 154.135 9.75089Z" fill="white"/>
</g>
</svg>
