<svg width="184" height="53" viewBox="0 0 184 53" fill="none" xmlns="http://www.w3.org/2000/svg">
<g opacity="0.35" clip-path="url(#clip0_4_91)">
<path d="M26.0199 0.683228C11.8217 0.683228 0.309692 12.359 0.309692 26.7591C0.309692 41.1592 11.8217 52.8349 26.0199 52.8349C40.2181 52.8349 51.7302 41.1592 51.7302 26.7591C51.7007 12.359 40.2181 0.683228 26.0199 0.683228ZM26.4037 27.5973L23.747 36.7583H38.0338C38.5356 36.7583 38.8603 37.2373 38.7422 37.7163L37.5025 42.0573C37.3844 42.4764 37.0007 42.7758 36.5579 42.7758H14.7145L18.4043 30.1121L14.3308 31.3994L15.2163 28.4057L19.3193 27.1183L24.5145 9.33526C24.6326 8.91613 25.0163 8.61675 25.4591 8.61675H30.979C31.4808 8.61675 31.8055 9.09576 31.6874 9.57476L27.2892 24.6035L31.3627 23.3162L30.4772 26.3399L26.4037 27.5973Z" fill="white"/>
<path d="M66.5813 8.58704H64.9873C64.6921 8.58704 64.4855 8.76666 64.4264 9.06604L60.2939 42.2671C60.2644 42.5964 60.3529 42.7461 60.6776 42.7461H62.2716C62.5963 42.7461 62.7734 42.5964 62.8325 42.2671L66.9945 9.06604C67.0831 8.73673 66.9059 8.58704 66.5813 8.58704Z" fill="white"/>
<path d="M74.9329 18.1669H73.339C73.0438 18.1669 72.8372 18.3166 72.7781 18.6459L69.8263 42.2968C69.7968 42.6261 69.9739 42.7758 70.2691 42.7758H71.8631C72.1582 42.7758 72.3649 42.6261 72.4239 42.2968L75.3462 18.6758C75.3757 18.3465 75.2576 18.1669 74.9329 18.1669Z" fill="white"/>
<path d="M144.771 17.7778C142.558 17.7778 140.639 18.4065 139.015 19.6939C137.392 20.9812 136.329 22.6577 135.798 24.7533C135.355 26.4598 134.971 28.8548 134.794 30.4715C134.558 32.6569 134.352 34.4532 134.352 36.1896C134.381 38.3152 135.06 39.9917 136.329 41.279C137.628 42.5364 139.399 43.195 141.643 43.195C143.827 43.195 145.746 42.5663 147.369 41.279C148.993 40.0216 150.055 38.3152 150.586 36.1896C150.941 34.7825 151.295 32.8964 151.59 30.4715C151.885 27.9567 152.033 26.0407 152.033 24.7234C152.033 22.6278 151.383 20.9512 150.085 19.6939C148.756 18.4065 146.985 17.7778 144.771 17.7778ZM149.258 28.1663C149.111 29.3638 149.022 30.1421 148.993 30.4715C148.697 32.9264 148.432 34.6628 148.196 35.7106C147.841 37.2673 147.074 38.5247 145.923 39.4827C144.771 40.4408 143.414 40.8898 141.908 40.8898C140.373 40.8898 139.163 40.4108 138.248 39.4827C137.333 38.5547 136.89 37.3272 136.89 35.8004C136.89 34.9921 136.979 33.9742 137.126 32.7767C137.274 31.5792 137.362 30.8008 137.392 30.4715C137.687 28.1363 137.953 26.3999 138.189 25.2323C138.543 23.6756 139.311 22.4182 140.462 21.4602C141.613 20.5022 142.971 20.0531 144.476 20.0531C146.011 20.0531 147.221 20.5321 148.136 21.4302C149.052 22.3583 149.494 23.5858 149.494 25.1126C149.494 25.9808 149.406 26.9687 149.258 28.1663Z" fill="white"/>
<path d="M161.125 18.167H159.561C159.265 18.167 159.059 18.3466 159 18.646L156.018 42.2969C155.989 42.6262 156.166 42.7759 156.461 42.7759H158.055C158.35 42.7759 158.557 42.6262 158.616 42.2969L161.538 18.6759C161.568 18.3466 161.45 18.167 161.125 18.167Z" fill="white"/>
<path d="M181.254 19.574C180.162 18.4065 178.627 17.8376 176.62 17.8376C175.321 17.8376 174.14 18.0771 173.048 18.5861C171.956 19.095 171.041 19.8435 170.273 20.8614C170.126 20.9811 170.067 20.9512 170.067 20.7716L170.303 18.6759C170.332 18.3765 170.214 18.1969 169.919 18.1969H168.325C168.03 18.1969 167.823 18.3765 167.764 18.6759L164.842 42.2969C164.812 42.5962 164.901 42.7759 165.226 42.7759H166.82C167.115 42.7759 167.322 42.5962 167.351 42.2969L169.476 25.352C169.831 23.7653 170.568 22.478 171.661 21.5499C172.753 20.6219 174.052 20.1429 175.587 20.1429C177.003 20.1429 178.125 20.5919 178.952 21.4901C179.778 22.3882 180.191 23.5857 180.191 25.1125C180.191 25.5616 180.162 25.9209 180.132 26.1903L178.096 42.2969C178.096 42.4465 178.096 42.5364 178.155 42.6262C178.243 42.716 178.361 42.7759 178.538 42.7759H180.132C180.428 42.7759 180.634 42.6262 180.664 42.2969L182.7 25.8011C182.759 25.1425 182.789 24.6635 182.789 24.3342C182.878 22.2984 182.346 20.7117 181.254 19.574Z" fill="white"/>
<path d="M75.9641 8.61679C75.0195 8.10784 73.8093 8.4671 73.337 9.45504C72.8352 10.4131 73.2189 11.6405 74.1635 12.1494C75.1081 12.6584 76.2888 12.2692 76.7906 11.3112C77.2924 10.3232 76.9382 9.12573 75.9641 8.61679Z" fill="white"/>
<path d="M162.271 8.61691C161.327 8.10796 160.117 8.46722 159.644 9.45517C159.143 10.4132 159.526 11.6406 160.471 12.1496C161.415 12.6585 162.626 12.2693 163.127 11.3113C163.6 10.3234 163.216 9.12585 162.271 8.61691Z" fill="white"/>
<path d="M123.995 17.7776C121.781 17.7776 119.862 18.4362 118.239 19.6936C116.615 20.9809 115.553 22.6575 115.021 24.7531C114.579 26.4596 114.165 29.154 114.018 30.4712C113.811 32.3872 113.575 34.453 113.575 36.1893C113.604 38.3149 114.283 39.9914 115.553 41.2788C116.851 42.5362 118.623 43.1948 120.866 43.1948C123.05 43.1948 124.969 42.5661 126.592 41.2788C128.216 40.0214 129.279 38.3149 129.81 36.1893C129.839 36.0097 129.898 35.8301 129.928 35.6505C129.957 35.5008 129.839 35.381 129.721 35.381H127.744C127.626 35.381 127.478 35.4409 127.448 35.6205C127.448 35.6505 127.419 35.7103 127.419 35.7103C127.065 37.2671 126.297 38.5245 125.146 39.4825C123.995 40.4405 122.637 40.8896 121.132 40.8896C119.597 40.8896 118.386 40.4106 117.471 39.4825C116.556 38.5544 116.113 37.327 116.113 35.8002C116.113 34.9918 116.202 33.9739 116.35 32.7764C116.468 31.7585 116.586 30.8005 116.615 30.4712C116.91 28.1361 117.176 26.3997 117.412 25.2321C117.767 23.6753 118.534 22.418 119.685 21.4599C120.836 20.5019 122.194 20.0529 123.7 20.0529C125.205 20.0529 126.445 20.5019 127.36 21.43C128.275 22.3581 128.718 23.5855 128.718 25.1124V25.1423C128.718 25.3519 128.895 25.5315 129.101 25.5315H130.961C131.109 25.5315 131.256 25.4117 131.256 25.2321C131.256 25.0225 131.256 24.8429 131.256 24.6633C131.256 22.5676 130.607 20.8911 129.308 19.6337C127.98 18.4063 126.238 17.7776 123.995 17.7776Z" fill="white"/>
<path d="M107.958 19.6936C106.659 18.4362 104.888 17.7776 102.674 17.7776C100.46 17.7776 98.5415 18.4063 96.918 19.6936C95.2945 20.9809 94.2319 22.6575 93.7005 24.7531C93.2578 26.4596 93.0511 27.9864 92.6969 30.4712C92.3722 32.9261 92.2542 34.453 92.2542 36.1893C92.2837 38.3149 92.9626 39.9914 94.2319 41.2788C95.5307 42.5362 97.3017 43.1948 99.5451 43.1948C101.729 43.1948 103.648 42.5661 105.272 41.2788C106.895 40.0214 107.958 38.3149 108.489 36.1893C108.519 36.0097 108.578 35.8301 108.607 35.6505C108.637 35.5008 108.548 35.381 108.401 35.381H106.423C106.305 35.381 106.157 35.4409 106.128 35.6205C106.128 35.6505 106.098 35.7103 106.098 35.7103C105.744 37.2671 104.976 38.5245 103.825 39.4825C102.674 40.4405 101.316 40.8896 99.8108 40.8896C98.2758 40.8896 97.0656 40.4106 96.1505 39.4825C95.2355 38.5544 94.7927 37.327 94.7927 35.8002C94.7927 35.0816 94.8517 34.1835 94.9698 33.1656L109.316 28.645C109.611 28.5552 109.729 28.4055 109.788 28.0463C109.876 27.2978 109.935 26.0105 109.935 24.6932C109.906 22.8071 109.257 20.951 107.958 19.6936ZM107.397 26.4895C107.397 26.6392 107.308 26.7589 107.161 26.7889L95.265 30.5311C95.265 30.5012 95.265 30.5012 95.265 30.4712C95.5602 28.1361 95.8258 26.3997 96.062 25.2321C96.4162 23.6753 97.1837 22.418 98.3349 21.4599C99.4861 20.5019 100.844 20.0529 102.349 20.0529C103.884 20.0529 105.095 20.5319 106.01 21.43C107.456 22.9568 107.485 24.5136 107.397 26.4895Z" fill="white"/>
<path d="M86.8009 40.1712C87.0961 40.0215 87.4208 40.231 87.3618 40.5603L87.1552 42.177C87.1256 42.3866 86.978 42.5662 86.8009 42.656C85.3841 43.1949 83.4064 43.4344 81.8124 42.7159C79.9822 41.8776 79.51 40.0514 79.7756 37.7761L81.8714 20.4421L82.1666 17.9573L82.875 12.4487C82.9045 12.1194 83.1112 11.9697 83.4359 11.9697H84.9708C85.325 11.9697 85.4136 12.1793 85.3545 12.4487L84.4395 20.2924H89.428C89.7232 20.2924 89.8413 20.4721 89.8413 20.7714L89.6937 21.9091C89.6642 22.0887 89.6347 22.1785 89.5461 22.2983C89.4576 22.3881 89.2805 22.418 89.1624 22.418H84.2033L82.4618 36.6385C82.2847 38.1653 82.078 39.5425 82.8455 40.2909C83.8491 41.1292 85.7973 40.6502 86.8009 40.1712Z" fill="white"/>
</g>
<defs>
<clipPath id="clip0_4_91">
<rect width="182.864" height="52.4211" fill="white" transform="translate(0.161987 0.533569)"/>
</clipPath>
</defs>
</svg>
