<svg width="186" height="70" viewBox="0 0 186 70" fill="none" xmlns="http://www.w3.org/2000/svg">
<g opacity="0.35">
<path d="M77.4736 30.5461H74.7311V48.3497H77.4736V30.5461Z" fill="white"/>
<path d="M89.7608 23.005H67.4071V25.7318H89.7608V23.005Z" fill="white"/>
<path d="M82.4315 30.5461H79.689V48.3497H82.4315V30.5461Z" fill="white"/>
<path d="M158.197 48.3681H160.964V37.6454L158.197 34.587V48.3681Z" fill="white"/>
<path d="M172.768 23.0051V42.8844L153.194 21.2549V48.3686H155.955V28.4832L175.541 50.1189V23.0051H172.768Z" fill="white"/>
<path d="M135.267 22.9926C128.232 22.9926 122.512 28.6794 122.512 35.6743C122.512 42.6692 128.232 48.356 135.267 48.356C142.303 48.356 148.022 42.6692 148.022 35.6743C148.022 28.6855 142.303 22.9926 135.267 22.9926ZM135.267 45.6231C129.751 45.6231 125.261 41.1646 125.261 35.6743C125.261 30.184 129.745 25.7254 135.267 25.7254C140.783 25.7254 145.274 30.184 145.274 35.6743C145.274 41.1584 140.783 45.6231 135.267 45.6231Z" fill="white"/>
<path d="M135.268 33.8506C134.255 33.8506 133.433 34.6674 133.433 35.6745C133.433 36.6817 134.255 37.4985 135.268 37.4985C136.28 37.4985 137.102 36.6817 137.102 35.6745C137.102 34.6674 136.28 33.8506 135.268 33.8506Z" fill="white"/>
<path d="M117.716 30.786C117.716 26.4993 114.233 23.0111 109.952 23.0111H95.3626V48.3746H98.0866V25.7624H109.952C112.701 25.7624 114.937 28.0162 114.937 30.786C114.937 33.5434 112.732 35.7849 110.008 35.8157L100.329 35.8095V48.3746H103.053V38.5608H109.433L114.646 48.3684H117.815L112.373 38.1739C115.517 37.136 117.716 34.1145 117.716 30.786Z" fill="white"/>
<path d="M48.5491 17.9812L11.3774 11.1829L30.9392 60.1165L58.191 27.101L48.5491 17.9812ZM47.9562 20.9782L53.645 26.3518L38.0919 29.1522L47.9562 20.9782ZM34.7132 28.5934L18.3201 15.0764L45.1087 19.9772L34.7132 28.5934ZM33.5396 30.9885L30.8713 52.9558L16.4609 16.8942L33.5396 30.9885ZM36.0103 32.1492L53.2311 29.0478L33.484 52.9742L36.0103 32.1492Z" fill="white"/>
</g>
</svg>
