<svg width="167" height="33" viewBox="0 0 167 33" fill="none" xmlns="http://www.w3.org/2000/svg">
<g opacity="0.4">
<g clip-path="url(#clip0_4_592)">
<path d="M27.0081 2.85938H45.5601V6.97485H31.8287V12.987H40.9769V17.1025H31.8287V23.8304H45.9984V27.9459H27.0081V2.85938Z" fill="white"/>
<path d="M44.646 10.1237H49.5762L53.9038 22.5595L57.921 10.1237H62.7051L56.0767 27.9633H51.6396L44.646 10.1237Z" fill="white"/>
<path d="M61.9579 19.088C61.9579 13.6484 65.8107 9.78345 71.3252 9.78345C76.8032 9.78345 80.656 13.6484 80.656 19.088C80.656 24.456 76.7302 28.321 71.1974 28.321C65.7377 28.3031 61.9579 24.5276 61.9579 19.088ZM75.7989 19.1954V19.0522C75.7989 15.6525 74.1007 13.6126 71.3252 13.6126C68.5132 13.6126 66.815 15.6525 66.815 19.0522V19.1954C66.815 22.5235 68.4767 24.4918 71.2522 24.4918C74.0642 24.4918 75.7989 22.5235 75.7989 19.1954Z" fill="white"/>
<path d="M82.8307 2.51929H87.6513V27.9637H82.8307V2.51929Z" fill="white"/>
<path d="M90.4089 20.8239V10.1237H95.1931V20.5555C95.1931 22.9353 96.3434 24.331 98.5164 24.331C101.018 24.331 102.059 22.2554 102.059 19.1956V10.1237H106.843V27.9633H102.059V25.4404C101.091 27.3013 99.4294 28.3212 97.0921 28.3212C92.9653 28.3033 90.4089 25.4404 90.4089 20.8239Z" fill="white"/>
<path d="M111.223 23.2413V13.9009H108.63V10.1254H111.223V6.76146L115.898 4.18481V10.1254H119.495V13.9009H115.861V22.7939C115.861 23.6707 116.281 24.0465 117.176 24.0822H119.294V27.983H115.569C112.063 27.7862 111.296 26.1937 111.223 23.2413Z" fill="white"/>
<path d="M121.647 2.94885H126.614V7.51166H121.647V2.94885ZM121.72 10.1241H126.541V27.9638H121.72V10.1241Z" fill="white"/>
<path d="M128.714 19.088C128.714 13.6484 132.567 9.78345 138.082 9.78345C143.56 9.78345 147.413 13.6484 147.413 19.088C147.413 24.456 143.487 28.321 137.954 28.321C132.494 28.3031 128.714 24.5276 128.714 19.088ZM142.574 19.1954V19.0522C142.574 15.6525 140.875 13.6126 138.1 13.6126C135.288 13.6126 133.59 15.6525 133.59 19.0522V19.1954C133.59 22.5235 135.251 24.4918 138.027 24.4918C140.839 24.4918 142.574 22.5235 142.574 19.1954Z" fill="white"/>
<path d="M149.57 10.1242H154.354V13.0408C155.321 10.9652 157.093 9.74841 159.686 9.74841C163.666 9.74841 166.022 12.3608 166.022 17.2636V27.9639H161.219V17.532C161.219 15.0449 160.252 13.7565 158.024 13.7565C155.741 13.7565 154.354 15.5638 154.354 18.8919V27.9639H149.57V10.1242Z" fill="white"/>
</g>
<path d="M20.2171 31.257C19.3954 31.257 18.7381 30.6128 18.7381 29.8076C18.7381 29.0024 19.4137 28.3583 20.2171 28.3583C21.0388 28.3583 21.6962 29.0024 21.6962 29.8076C21.6962 30.6128 21.0388 31.257 20.2171 31.257ZM20.2171 27.9646C19.1946 27.9646 18.3546 28.7877 18.3546 29.7897C18.3546 30.7917 19.1946 31.6148 20.2171 31.6148C21.2579 31.6148 22.0796 30.7917 22.0796 29.7897C22.0796 28.7877 21.2397 27.9646 20.2171 27.9646Z" fill="white"/>
<g clip-path="url(#clip1_4_592)">
<path d="M17.1636 14.5441C18.6426 14.5978 20.286 14.5441 22.0755 14.4188C21.8198 10.8759 20.6329 7.92353 18.8617 5.63318C18.953 6.25945 18.9896 6.90361 18.9896 7.54777C19.0078 10.0707 18.3322 12.4684 17.1636 14.5441Z" fill="white"/>
<path d="M16.5435 15.5465C13.8958 19.4651 9.36734 22.0418 4.19978 22.0418C3.83459 22.0418 3.46939 22.0239 3.10419 22.006C1.78947 23.9743 0.931257 26.1752 0 28.2329C9.23953 33.0641 21.1633 27.9645 22.058 15.6538C20.0311 15.4928 18.1869 15.4749 16.5435 15.5465Z" fill="white"/>
<path d="M0.0169678 1.84006C2.59162 7.51226 4.50891 14.1507 17.163 14.5444C18.3317 12.4687 19.0073 10.071 19.0073 7.53015C19.0073 6.88599 18.9525 6.24183 18.8795 5.61556C14.5153 -0.00296194 6.59054 -1.59547 0.0169678 1.84006Z" fill="white"/>
<path d="M16.5428 15.5464C8.92843 15.9221 5.34949 18.6419 3.10352 22.0059C3.46871 22.0238 3.83391 22.0417 4.19911 22.0417C9.34841 22.0417 13.8951 19.465 16.5428 15.5464Z" fill="white"/>
</g>
<g clip-path="url(#clip2_4_592)">
<path d="M19.5033 29.5029H19.2294V29.3241H20.0145V29.5029H19.7406V30.272H19.5033V29.5029Z" fill="white"/>
<path d="M20.1038 29.3241H20.469L20.6516 29.9322L20.8342 29.3241H21.1994V30.272H20.9802V29.5029L20.7429 30.272H20.5603L20.3229 29.5029V30.272H20.122V29.3241H20.1038Z" fill="white"/>
</g>
</g>
<defs>
<clipPath id="clip0_4_592">
<rect width="139.015" height="25.8022" fill="white" transform="translate(27.0081 2.51929)"/>
</clipPath>
<clipPath id="clip1_4_592">
<rect width="22.0762" height="29.9994" fill="white" transform="translate(0 0.0373535)"/>
</clipPath>
<clipPath id="clip2_4_592">
<rect width="1.97007" height="0.947861" fill="white" transform="translate(19.2294 29.3241)"/>
</clipPath>
</defs>
</svg>
