<svg width="121" height="33" viewBox="0 0 121 33" fill="none" xmlns="http://www.w3.org/2000/svg">
<g opacity="0.4">
<path fill-rule="evenodd" clip-rule="evenodd" d="M59.7283 25.0783H58.9699C40.8516 25.0783 22.7334 25.0784 4.60461 25.0886C1.54979 25.0886 -0.588579 22.5476 0.148791 19.6788C0.780823 17.1992 1.45499 14.7402 2.15022 12.2812C2.8876 9.689 4.66782 8.10088 7.33288 7.46564C7.83851 7.34268 8.37574 7.33244 8.8919 7.33244C27.3788 7.32219 45.8657 7.32219 64.3632 7.33244C64.7846 7.33244 65.069 7.27096 65.2902 6.86113C66.7228 4.12547 68.9665 2.22998 71.8107 0.979977C73.159 0.375468 74.6232 0.0578453 76.1085 0.0475994C85.3993 0.0475994 94.6902 0.0475994 103.971 0.0373535C105.456 0.0373535 106.867 0.22178 108.237 0.826288C109.933 1.57424 111.176 2.77301 111.881 4.43285C112.261 5.32424 112.44 6.2976 112.735 7.33244C113.219 7.33244 113.851 7.31195 114.473 7.34269C115.242 7.38367 116.021 7.41441 116.769 7.5476C118.528 7.87547 119.898 9.38162 120.14 11.1029C120.256 11.9533 120.14 12.7628 119.908 13.5722C119.308 15.6726 118.728 17.773 118.118 19.8734C117.401 22.3222 115.853 23.982 113.335 24.8017C112.503 25.0783 111.692 25.0681 110.849 25.0783C109.88 25.0886 108.921 25.0988 107.952 25.0681C107.552 25.0579 107.289 25.1808 107.11 25.5292C106.162 27.271 104.824 28.6849 103.18 29.8324C101.4 31.0824 99.462 31.9636 97.2499 32.148C95.9437 32.2607 94.627 32.2607 93.3103 32.2607C84.6198 32.271 75.9294 32.3222 67.239 32.2402C63.5626 32.2095 60.5921 29.9452 59.8758 26.1644C59.781 25.8263 59.7704 25.4779 59.7283 25.0783ZM92.8784 29.1767C94.8798 29.1972 96.8918 29.4329 98.83 28.6644C99.8939 28.2443 100.884 27.6808 101.769 26.9738C103.686 25.4574 104.855 23.4902 105.466 21.1644C105.782 19.9759 106.162 18.8181 106.541 17.6501C106.973 16.3283 107.426 15.0066 107.868 13.6849C108.353 12.2197 108.785 10.7341 109.301 9.27916C109.848 7.72178 109.775 6.20539 108.911 4.81195C107.973 3.29555 106.435 2.71154 104.697 2.66031C102.738 2.60908 100.768 2.70129 98.7984 2.63981C96.8286 2.57834 95.08 3.19309 93.4788 4.20744C92.7625 4.65826 92.141 5.26277 91.509 5.82629C90.5715 6.66646 89.8552 7.71154 89.4233 8.88982C88.8439 10.4165 88.412 11.9943 87.9169 13.5415C87.1269 15.9902 86.3158 18.4288 85.5573 20.8775C85.2203 21.9636 84.841 23.0497 84.7041 24.1665C84.3775 26.7689 86.2947 28.982 89.0125 29.1767C90.2765 29.2484 91.5827 29.1767 92.8784 29.1767ZM69.8408 22.937C69.8724 22.6603 69.8619 22.4452 69.9146 22.2607C70.4097 20.7033 70.9047 19.1562 71.4104 17.6091C72.2531 15.0476 73.1169 12.4964 73.9174 9.92465C74.0544 9.49433 74.2124 9.38162 74.6548 9.38162C78.5207 9.39187 82.3761 9.38162 86.242 9.39187C86.6634 9.39187 86.9583 9.32014 87.0426 8.85908C87.1164 8.51072 87.2112 8.1726 87.327 7.83449C87.7905 6.42055 88.2435 5.00662 88.728 3.60293C88.8755 3.19309 88.7807 3.0394 88.3278 3.0394C84.3459 3.04965 80.3536 3.02916 76.3718 3.07014C75.5712 3.07014 74.7707 3.19309 74.0122 3.43899C72.5796 3.92055 71.2629 4.67875 70.1463 5.68285C69.1351 6.59473 68.3134 7.59883 67.8183 8.80785C67.26 10.1501 66.8176 11.5435 66.3541 12.9369C65.838 14.4841 65.3639 16.0312 64.8794 17.5783C64.5423 18.6439 64.2052 19.7197 63.847 20.7751C63.4257 22.0661 62.8674 23.3161 62.8147 24.6993C62.7515 26.0005 63.2993 27.2505 64.3 28.1009C65.2902 28.9513 66.5437 29.3202 67.9131 29.2997C70.199 29.2587 72.4743 29.3202 74.7601 29.2689C75.487 29.2587 76.2033 29.1152 76.888 28.8488C77.7728 28.4902 78.605 27.9677 79.4266 27.4759C80.617 26.7587 81.4175 25.6829 82.0706 24.5251C82.5973 23.6029 82.9344 22.5783 83.282 21.564C84.1353 19.023 84.9464 16.4615 85.768 13.9103C86.0314 13.1009 86.0208 13.1009 85.1255 13.0497C84.9148 13.0394 84.7041 12.9984 84.4934 12.9984C82.0496 12.9984 79.6162 13.0087 77.1724 12.9882C76.7089 12.9882 76.4877 13.1214 76.3507 13.5619C75.8873 15.0681 75.3922 16.564 74.9076 18.0599C74.8339 18.2956 74.7391 18.5415 74.6864 18.7874C74.5916 19.1665 74.7075 19.3816 75.1604 19.3509C75.803 19.3099 76.4561 19.3099 77.0987 19.2689C77.6253 19.2382 77.8887 19.4226 77.7728 19.812C77.4989 20.7238 77.1829 21.6152 76.8985 22.5271C76.7932 22.855 76.593 22.9677 76.2349 22.9574C74.7391 22.937 73.2538 22.9472 71.758 22.9472L69.8408 22.937ZM30.8129 21.062C31.7082 21.062 32.5193 21.0722 33.3199 21.0517C33.4463 21.0517 33.6359 20.8673 33.6781 20.7238C33.9625 19.9042 34.2048 19.0742 34.4681 18.2443C35.0264 16.5025 35.6163 14.7607 36.1535 13.0087C36.6065 11.523 35.7111 10.4062 34.0994 10.4062C33.2778 10.4062 32.4456 10.4165 31.624 10.4165C30.0439 10.4165 28.3901 11.5845 27.916 13.0497C27.2103 15.2218 26.5045 17.3939 25.7987 19.5661C25.6407 20.0476 25.5038 20.5292 25.3353 21.0722C26.1464 21.0722 26.8627 21.0517 27.579 21.0824C27.9582 21.0927 28.1373 20.98 28.2426 20.6111C28.4006 19.9861 28.6218 19.3714 28.8325 18.7669C28.8852 18.6337 29.0221 18.4288 29.1274 18.4185C29.9386 18.3878 30.7602 18.398 31.6556 18.398C31.3712 19.3201 31.1078 20.1501 30.8129 21.062ZM6.47964 21.0722C7.30128 21.0722 8.03865 21.0517 8.76549 21.0824C9.11311 21.0927 9.26058 20.9595 9.35539 20.6521C9.545 20.0169 9.78727 19.3919 9.96635 18.7566C10.0506 18.4595 10.1876 18.3878 10.4825 18.3878C11.1356 18.4083 11.7782 18.3673 12.4313 18.398C14.2747 18.48 15.8969 17.312 16.4973 15.5804C16.8028 14.7095 17.0767 13.8386 17.319 12.9472C17.6982 11.6152 16.8871 10.4267 15.5493 10.4062C13.8112 10.3755 12.0731 10.4062 10.335 10.396C10.0085 10.396 9.86101 10.5292 9.77674 10.7956C9.50286 11.6357 9.23951 12.4759 8.96563 13.316C8.44947 14.9144 7.93332 16.5128 7.40662 18.1214C7.10114 19.0845 6.80619 20.0374 6.47964 21.0722ZM46.6031 10.4062C45.7709 10.4062 45.0546 10.4267 44.3383 10.396C43.9486 10.3755 43.8011 10.5189 43.6852 10.8673C43.2218 12.3734 42.7267 13.8796 42.221 15.3857C42.1473 15.5599 41.9893 15.6829 41.7997 15.7136C41.1571 15.7443 40.504 15.7238 39.8509 15.7238C39.5138 15.7238 39.419 15.6009 39.5349 15.2833C39.8509 14.3509 40.1459 13.4083 40.4513 12.4759C40.662 11.8099 40.8832 11.1439 41.115 10.4165C40.2617 10.4165 39.5138 10.4369 38.7554 10.4062C38.4394 10.396 38.3235 10.5292 38.2392 10.7853C38.0707 11.3079 37.9127 11.8201 37.7441 12.3324C37.3649 13.5005 36.9646 14.6583 36.6276 15.8365C36.2589 17.107 36.7856 17.9472 38.0812 18.316C38.2182 18.3673 38.3446 18.4185 38.471 18.48C38.2076 19.3406 37.9654 20.1603 37.6915 21.062C38.5552 21.062 39.3664 21.0824 40.1669 21.0517C40.2933 21.0415 40.4829 20.857 40.5356 20.7238C40.7568 20.1911 40.9254 19.6378 41.0623 19.0742C41.1676 18.5927 41.431 18.4083 41.884 18.3058C43.4535 17.9677 44.4542 16.9943 44.9598 15.5394C45.3285 14.4841 45.6551 13.4083 46.0027 12.3427C46.1923 11.7177 46.3819 11.1029 46.6031 10.4062ZM25.8514 15.7341C24.935 15.7341 24.1133 15.7238 23.3022 15.7443C23.2074 15.7443 23.0599 15.9083 23.0178 16.0312C22.7861 16.687 22.5859 17.3632 22.3542 18.0189C22.3015 18.1726 22.1435 18.3878 22.0276 18.3878C21.227 18.4185 20.4265 18.4083 19.5311 18.4083C20.4054 15.7136 21.2481 13.0906 22.1119 10.4369H19.3626C18.2144 13.982 17.0767 17.4964 15.9285 21.0415H24.1449C24.6927 19.2997 25.2615 17.5579 25.8514 15.7341ZM54.2928 21.0722C55.1988 21.0722 55.9888 21.0824 56.7683 21.062C56.9052 21.0415 57.0211 20.9492 57.0843 20.8263C57.5899 19.2177 58.1272 17.6193 58.5485 16.0005C58.9488 14.4636 57.7901 13.521 56.4733 13.5824C55.6306 13.6234 54.7879 13.5722 53.9452 13.5927C52.3019 13.6439 51.0905 14.4329 50.4374 15.857C49.9634 16.8919 49.7211 18.0189 49.3841 19.105C49.1839 19.7402 49.0048 20.3857 48.8047 21.0722C49.6263 21.0722 50.3637 21.0517 51.1011 21.0824C51.4908 21.1029 51.6278 20.9288 51.712 20.6111C51.8806 19.9861 52.0597 19.3714 52.2387 18.7464C52.4916 17.9062 52.7549 17.0763 53.0182 16.2259C53.7451 16.2259 54.4087 16.2361 55.0723 16.2259C55.4937 16.2156 55.6938 16.3079 55.5464 16.7894C55.283 17.5988 55.0723 18.4185 54.8301 19.2382C54.6721 19.8222 54.493 20.396 54.2928 21.0722ZM47.1403 13.7874C48.3201 13.7874 49.4157 13.7976 50.5112 13.7771C50.6376 13.7464 50.7429 13.6644 50.8061 13.5517C51.1432 12.6296 51.4698 11.6972 51.8068 10.7443H48.1832L47.1403 13.7874ZM102.485 9.51482C102.201 10.355 101.937 11.1132 101.685 11.8816C101.495 12.4656 101.316 13.0497 101.126 13.6234C100.779 14.6788 100.421 15.7341 100.094 16.7997C99.7043 18.0599 99.3672 19.3406 98.988 20.6009C98.7773 21.2771 98.5351 21.9533 98.2612 22.6091C98.198 22.7628 97.9241 22.9062 97.745 22.9165C97.2499 22.9574 96.7443 22.9165 96.2387 22.9267C95.1221 22.9472 94.0055 22.9882 92.8784 22.9984C92.5834 22.9984 92.2885 22.9574 92.0041 22.8652C91.9093 22.8345 91.8145 22.5579 91.8566 22.4349C92.2463 21.1029 92.6572 19.771 93.0891 18.439C93.6473 16.6972 94.2267 14.9554 94.7955 13.2136C95.1748 12.066 95.5224 10.9185 95.9332 9.78121C96.0385 9.58654 96.2281 9.45334 96.4494 9.41236C98.2717 9.38162 100.094 9.38162 101.916 9.37137C102.064 9.37137 102.211 9.4431 102.485 9.51482ZM29.8964 15.6931C30.1598 14.8734 30.3494 14.1665 30.6127 13.4902C30.6759 13.316 30.9603 13.1419 31.1605 13.1214C31.7188 13.0701 32.2771 13.0906 32.8354 13.1009C33.1514 13.1009 33.2778 13.2341 33.183 13.5517C33.0144 14.0742 32.888 14.5968 32.7195 15.1193C32.5826 15.5394 32.3297 15.7546 31.8346 15.7136C31.2237 15.6521 30.6127 15.6931 29.8964 15.6931ZM11.0408 15.6829C11.3147 14.8529 11.557 14.1152 11.8203 13.3878C11.8835 13.2853 11.9889 13.2136 12.1153 13.2033C12.8526 13.1521 13.6005 13.1316 14.4116 13.0906C14.1483 13.9308 13.9271 14.6685 13.6637 15.396C13.59 15.5394 13.4531 15.6419 13.2951 15.6624C12.5998 15.7033 11.894 15.6829 11.0408 15.6829Z" fill="white"/>
</g>
</svg>
