<svg width="166" height="77" viewBox="0 0 166 77" fill="none" xmlns="http://www.w3.org/2000/svg">
<g opacity="0.4">
<g clip-path="url(#clip0_4_568)">
<path d="M142.777 30.4146C134.54 30.9154 138.24 41.6414 147.355 41.078C156.26 40.5145 151.556 29.872 142.777 30.4146Z" fill="white"/>
<path d="M139.303 23.7996C124.65 23.7996 112.755 35.6733 112.755 50.3015C112.755 64.9298 124.65 76.8035 139.303 76.8035C153.957 76.8035 165.852 64.9298 165.852 50.3015C165.852 35.6524 153.957 23.7996 139.303 23.7996ZM139.303 74.0281C126.176 74.0281 115.535 63.4064 115.535 50.3224C115.535 37.2384 126.176 26.5959 139.282 26.5959C152.389 26.5959 163.051 37.1967 163.051 50.3015C163.051 63.4064 152.41 74.0281 139.303 74.0281ZM138.488 5.29001C132.175 10.0478 133.283 17.3306 133.283 17.3306C133.283 17.3306 129.311 7.06376 124.169 0.782593C123.479 8.85838 126.008 19.5635 126.008 19.5635C126.008 19.5635 122.789 12.9276 114.887 12.552C121.43 16.3081 123.981 23.0693 124.545 24.8847C128.454 22.485 132.907 21.1286 137.485 20.9825C137.004 19.3131 135.164 12.1972 138.488 5.29001Z" fill="white"/>
<path d="M2.32161 52.8894V58.4402H0.00125122V44.1459H4.87192C6.52335 44.1459 7.7567 44.5424 8.59286 45.3145C9.42903 46.0866 9.84712 47.1717 9.84712 48.5281C9.84712 49.8845 9.42903 50.9487 8.57196 51.7208C7.71489 52.4929 6.48154 52.8894 4.89283 52.8894H2.32161ZM7.48494 48.549C7.48494 47.7351 7.255 47.13 6.81601 46.6917C6.35612 46.2744 5.64538 46.0449 4.64198 46.0449H2.32161V51.0113H4.64198C6.52335 51.0113 7.48494 50.1975 7.48494 48.549ZM19.3794 58.4402L15.8048 52.7225H14.1534V58.4402H11.8539V44.1459H16.9127C18.5433 44.1459 19.7975 44.5424 20.6337 45.3354C21.4698 46.1283 21.9088 47.1926 21.9088 48.4864C21.9088 49.5923 21.5953 50.5105 20.9681 51.2409C20.341 51.9713 19.4421 52.4303 18.2506 52.6182L22.0133 58.4194H19.3794V58.4402ZM14.1743 51.0948H16.7246C18.5851 51.0948 19.5257 50.281 19.5257 48.6324C19.5257 47.8603 19.2958 47.2343 18.8568 46.7961C18.3969 46.3579 17.7071 46.1492 16.7455 46.1492H14.1743V51.0948ZM32.5281 55.3518H26.4868L25.3998 58.4402H22.9331L28.201 44.3754H30.8558L36.1028 58.4402H33.6361L32.5281 55.3518ZM31.8801 53.5572L29.497 46.8796L27.114 53.5572H31.8801ZM47.7673 45.2936C48.8961 46.1283 49.6905 47.3386 50.0249 48.7159H47.6C47.2865 47.9647 46.7639 47.3178 46.074 46.8796C45.3215 46.3996 44.4435 46.1701 43.5446 46.1909C42.7085 46.1701 41.8723 46.3996 41.1407 46.817C40.4299 47.2343 39.8446 47.8603 39.4892 48.5907C39.0711 49.4463 38.883 50.3644 38.9039 51.3035C38.883 52.2843 39.0921 53.2442 39.5101 54.1206C39.8864 54.8719 40.4926 55.4979 41.2243 55.9152C42.0186 56.3326 42.8966 56.5621 43.7955 56.5413C44.9243 56.5621 46.0113 56.1657 46.8475 55.4144C47.7046 54.684 48.2063 53.6615 48.3944 52.3886H43.1475V50.6983H50.3385V52.9103C50.1922 53.9328 49.795 54.9136 49.2097 55.7692C48.6034 56.6247 47.8091 57.3342 46.8893 57.8351C45.865 58.3567 44.7153 58.628 43.5655 58.6072C42.2695 58.628 40.9943 58.315 39.8655 57.6681C38.8203 57.063 37.9423 56.1656 37.3988 55.0805C36.2282 52.7016 36.2282 49.9054 37.3988 47.5265C37.9632 46.4622 38.8203 45.5649 39.8655 44.9597C40.9943 44.3337 42.2695 44.0207 43.5446 44.0416C45.217 44.0416 46.6385 44.4589 47.7673 45.2936ZM66.6228 44.3754V58.4402H64.2816V47.9021L60.2053 58.4402H58.1776L54.0803 47.9021V58.4402H51.76V44.3754H54.5611L59.2228 55.6022L63.8008 44.3754H66.6228ZM77.9529 55.3518H71.9116L70.8246 58.4402H68.337L73.6048 44.3754H76.2597L81.5066 58.4402H79.0399L77.9529 55.3518ZM77.3049 53.5572L74.9218 46.8796L72.5387 53.5572H77.3049ZM91.4152 44.1459V46.0031H87.4225V58.4402H85.0812V46.0031H81.1094V44.1459H91.4152ZM94.948 44.1459V58.4402H92.6485V44.1459H94.948ZM108.034 45.3354C109.205 46.2327 110.041 47.5265 110.375 48.9663H107.929C107.616 48.1316 107.052 47.4221 106.32 46.9004C105.526 46.3787 104.564 46.1075 103.602 46.1492C102.808 46.1283 102.014 46.3579 101.324 46.7752C100.634 47.2134 100.09 47.8395 99.7351 48.5698C98.9616 50.3018 98.9616 52.2634 99.7351 53.9954C100.09 54.7258 100.634 55.3518 101.324 55.79C102.014 56.2074 102.808 56.4369 103.602 56.4161C104.564 56.4578 105.505 56.1865 106.32 55.6648C107.052 55.164 107.616 54.4545 107.929 53.6198H110.375C110.02 55.0597 109.205 56.3326 108.034 57.2299C106.863 58.1063 105.421 58.5654 103.644 58.5654C102.39 58.5863 101.136 58.2733 100.049 57.6472C99.0034 57.0421 98.1672 56.1448 97.6446 55.0805C96.5158 52.7016 96.5158 49.9262 97.6446 47.5265C98.1881 46.4622 99.0243 45.5649 100.049 44.9389C101.136 44.3128 102.369 43.979 103.644 43.9998C105.421 43.9998 106.863 44.4589 108.034 45.3354ZM121.287 52.8894V58.4402H118.988V44.1459H123.858C125.51 44.1459 126.743 44.5424 127.579 45.3145C128.416 46.0866 128.834 47.1717 128.834 48.5281C128.834 49.8845 128.416 50.9487 127.559 51.7208C126.701 52.4929 125.468 52.8894 123.858 52.8894H121.287ZM126.471 48.549C126.471 47.7351 126.242 47.13 125.803 46.6917C125.343 46.2744 124.632 46.0449 123.629 46.0449H121.308V51.0113H123.629C125.51 51.0113 126.471 50.1975 126.471 48.549ZM132.785 56.6456H137.739V58.4402H130.485V44.1459H132.805V56.6456H132.785ZM148.316 55.3518H142.275L141.188 58.4402H138.721L143.989 44.3754H146.644L151.891 58.4402H149.424L148.316 55.3518ZM147.668 53.5572L145.306 46.8796L142.944 53.5572H147.668ZM161.172 44.1459L156.406 53.2442V58.4402H154.086V53.2442L149.299 44.1459H151.975L155.257 50.7609L158.538 44.1459H161.172Z" fill="white"/>
</g>
</g>
<defs>
<clipPath id="clip0_4_568">
<rect width="166" height="76" fill="white" transform="translate(0 0.803589)"/>
</clipPath>
</defs>
</svg>
