<svg width="101" height="36" viewBox="0 0 101 36" fill="none" xmlns="http://www.w3.org/2000/svg">
<g opacity="0.4">
<g clip-path="url(#clip0_4_584)">
<path d="M52.3829 0.107056H51.363V35.271H52.3829V28.5051H65.2649V24.4086H55.3533V19.691H63.8263V15.5636H55.3533V11.0003H65.2649V6.87291H52.3829V0.107056Z" fill="white"/>
<path d="M12.2887 20.1387L8.6281 14.2446L3.93596 6.94646L3.88943 6.87317H0V28.5054H4.31599V15.209L7.53456 20.3895L12.7114 28.5054H16.6319V6.87317H12.2887V20.1387Z" fill="white"/>
<path d="M19.0608 28.5054H33.3156V24.4088H23.4039V19.6913H31.8769V15.5639H23.4039V11.0006H33.3156V6.87317H19.0608V28.5054Z" fill="white"/>
<path d="M35.064 11.0314H40.0469V28.5054H44.3901V11.0314H49.342V6.87317H35.064V11.0314Z" fill="white"/>
<path d="M79.7289 20.1731L76.0683 14.2829L71.3761 6.98474L71.3296 6.90759H67.4402V28.5398H71.7523V15.2434L74.9709 20.4239L80.1516 28.5398H84.0721V6.90759H79.7289V20.1731Z" fill="white"/>
<path d="M85.8451 6.90759V11.0659H90.8281V28.5398H95.1712V11.0659H100.123V6.90759H85.8451Z" fill="white"/>
</g>
</g>
<defs>
<clipPath id="clip0_4_584">
<rect width="100.129" height="35.1639" fill="white" transform="translate(0 0.107056)"/>
</clipPath>
</defs>
</svg>
