<svg width="136" height="38" viewBox="0 0 136 38" fill="none" xmlns="http://www.w3.org/2000/svg">
<g opacity="0.4">
<path d="M23.461 0.292847H2.51069C1.84481 0.292847 1.20621 0.552742 0.735363 1.01536C0.264518 1.47798 0 2.10542 0 2.75966V34.9453C0 35.5996 0.264518 36.227 0.735363 36.6896C1.20621 37.1522 1.84481 37.4121 2.51069 37.4121H23.461C24.1269 37.4121 24.7655 37.1522 25.2363 36.6896C25.7071 36.227 25.9717 35.5996 25.9717 34.9453V2.75966C25.9717 2.10542 25.7071 1.47798 25.2363 1.01536C24.7655 0.552742 24.1269 0.292847 23.461 0.292847ZM21.5695 20.0938C21.57 21.4291 21.1334 22.7292 20.3239 23.8019L16.9663 28.2547L20.8595 31.7984C20.9418 31.8736 20.9991 31.9713 21.024 32.0788C21.0489 32.1864 21.0402 32.2989 20.9991 32.4015C20.958 32.5042 20.8864 32.5923 20.7936 32.6544C20.7007 32.7164 20.591 32.7496 20.4788 32.7495H15.5695C15.2877 32.7503 15.0162 32.6459 14.8097 32.4575L14.2065 31.9086L13.7225 31.4698L12.9858 30.8002L11.1513 29.1323C11.0507 29.04 10.988 28.9146 10.9752 28.7799C10.9625 28.6452 11.0004 28.5106 11.0819 28.4016L16.2883 21.5046C16.861 20.7461 17.1698 19.8266 17.1691 18.8822V13.0919C17.1691 11.23 16.4414 10.4328 16.1673 10.223C15.8506 9.98002 15.1798 9.40309 12.9858 9.40309C10.7919 9.40309 10.121 9.98002 9.80432 10.223C9.5303 10.4328 8.80254 11.23 8.80254 13.0919V19.2354C8.80296 19.7402 8.90937 20.2396 9.11511 20.7023C9.32085 21.1649 9.6215 21.5809 9.99827 21.9242L11.7456 23.5116C11.8461 23.6037 11.9087 23.7288 11.9215 23.8632C11.9343 23.9976 11.8964 24.1319 11.815 24.2407L9.72603 27.0064C9.67953 27.0685 9.6202 27.1203 9.55193 27.1583C9.48365 27.1963 9.40798 27.2197 9.32986 27.227C9.25174 27.2342 9.17294 27.2252 9.09862 27.2004C9.02431 27.1757 8.95615 27.1358 8.89862 27.0834L6.4342 24.8403C5.79323 24.2577 5.28184 23.5511 4.93215 22.7649C4.58245 21.9788 4.40201 21.1301 4.40216 20.2721V11.23C4.40216 8.63035 5.20643 7.45551 6.1317 6.65481C7.17975 5.7492 9.05343 4.95549 12.9858 4.95549C16.9182 4.95549 18.7919 5.7492 19.84 6.65481C20.7652 7.45551 21.5695 8.63035 21.5695 11.23V20.0938Z" fill="white"/>
<path d="M132.982 20.0151V31.1691V32.3929L126.989 21.7057C126.263 20.433 125.763 20.0186 124.818 20.0186C123.873 20.0186 123.206 20.6602 123.206 21.9417V24.426V35.58H125.33V24.426V23.2022L131.323 33.8894C132.049 35.1622 132.549 35.5765 133.494 35.5765C134.439 35.5765 135.106 34.9349 135.106 33.6621V31.1691V20.0151H132.982Z" fill="white"/>
<path d="M90.7688 20.0248H87.8666L82.0214 26.1437V20.0248H79.9039V35.5844H82.0214V29.1945L82.646 28.5389L88.0214 35.5914H90.7688L84.1104 27.0039L90.7688 20.0248Z" fill="white"/>
<path d="M112.838 20.9584C111.658 20.1944 110.307 20.0248 108.977 20.0248H105.074V35.5844H107.27V30.1193H108.977C110.307 30.1193 111.658 29.9445 112.838 29.1857C114.017 28.427 114.991 27.1245 114.991 25.072C114.991 23.0196 114.009 21.7154 112.838 20.9584ZM111.713 27.4567C111.124 27.913 110.21 28.198 108.977 28.198H107.27V21.9461H108.977C110.21 21.9461 111.124 22.2294 111.713 22.6874C112.082 22.9702 112.381 23.332 112.586 23.7452C112.791 24.1585 112.898 24.6122 112.898 25.072C112.898 25.5319 112.791 25.9856 112.586 26.3988C112.381 26.8121 112.082 27.1738 111.713 27.4567Z" fill="white"/>
<path d="M43.4785 33.7601C43.7526 33.4172 43.9883 33.0462 44.1813 32.6535C44.7525 31.4961 44.7489 30.1692 44.7472 29.2916V26.2286C44.7472 25.3545 44.7472 24.024 44.1813 22.8684C43.1688 20.8194 41.3574 19.7932 39.2115 19.788H39.1848C37.0389 19.788 35.2293 20.8212 34.2168 22.8684C33.6456 24.024 33.6492 25.351 33.651 26.2286V29.2916C33.651 30.1657 33.651 31.4961 34.2168 32.6535C35.2311 34.7042 37.046 35.7322 39.1991 35.7322C40.0335 35.7404 40.8594 35.5666 41.6172 35.2234L43.3219 37.4105H46.3255L43.4785 33.7601ZM42.6279 29.3807C42.6279 30.0923 42.6368 31.0643 42.272 31.7968C41.8895 32.5696 40.9767 33.7409 39.1955 33.7409C37.4143 33.7409 36.5015 32.5696 36.119 31.7968C35.7364 31.0241 35.7631 29.9227 35.7631 29.2094V26.3108C35.7631 25.5992 35.7346 24.4978 36.119 23.7251C36.5033 22.9523 37.4143 21.781 39.1955 21.781C40.9767 21.781 41.8895 22.9523 42.272 23.7251C42.6546 24.4978 42.6279 25.5992 42.6279 26.3108V29.3807Z" fill="white"/>
<path d="M70.9665 22.5432C72.4149 21.4698 74.0679 21.3597 76.6195 21.9418V20.503C76.6195 20.503 75.3561 19.788 73.3508 19.788C71.3455 19.788 70.1764 20.2967 69.2458 21.1114C68.1782 22.0397 67.3686 23.5223 67.132 25.8317C67.0039 27.1522 67.0039 28.4816 67.132 29.8021C67.3686 32.1063 68.1853 33.5888 69.2458 34.5224C70.1764 35.3371 71.3312 35.8441 73.3508 35.8441C75.3704 35.8441 76.6195 35.1203 76.6195 35.1203V33.6815C74.0679 34.2637 72.4149 34.1535 70.9665 33.0801C69.4896 31.9874 69.1871 29.9524 69.1871 27.8125C69.1871 25.6726 69.4896 23.6359 70.9665 22.5432Z" fill="white"/>
<path d="M98.861 21.608C99.9416 21.6513 101.018 21.7605 102.085 21.935V20.2601C100.691 19.8924 99.2465 19.7385 97.8041 19.8038C96.9641 19.8335 96.1294 19.9472 95.3129 20.143C94.1492 20.4367 93.5015 20.9821 93.1421 21.5171C92.9191 21.8486 92.7777 22.2265 92.7289 22.6209C92.6801 23.0154 92.7253 23.4155 92.861 23.7899C92.8653 23.8007 92.8689 23.8118 92.8717 23.8231C92.8966 23.8895 92.9232 23.9594 92.9535 24.0276C93.3627 25.0661 93.9855 25.8633 94.8681 26.8021C95.8147 27.8091 97.7791 29.6116 98.6048 30.5819C99.119 31.2008 99.724 32.0277 99.4233 32.741C99.0923 33.5225 97.6439 34.0644 95.9126 34.0155C94.8325 33.9655 93.7561 33.8564 92.6884 33.6886V35.3547C92.6884 35.3547 94.03 35.9351 96.9678 35.8197C99.9055 35.7043 101.073 34.9316 101.628 34.1064C101.906 33.6489 102.062 33.13 102.082 32.5976V32.5522C102.083 32.4635 102.08 32.3748 102.071 32.2865C102.028 31.4857 101.861 30.8878 100.825 29.7095C99.6635 28.3931 97.5799 26.4542 96.6421 25.4944L96.3841 25.2287C95.6973 24.5067 94.9446 23.6028 95.2952 22.7444C95.6653 21.8336 97.3023 21.5766 98.861 21.608Z" fill="white"/>
<path d="M64.1405 20.0237H61.9447V35.5921H64.1405V20.0237Z" fill="white"/>
<path d="M119.912 19.9983H117.716V35.5666H119.912V19.9983Z" fill="white"/>
<path d="M49.8481 20.0248H47.7289V30.2242C47.7289 32.0476 48.3552 35.8187 53.1186 35.8187C57.8819 35.8187 58.5101 32.0407 58.5101 30.2242V20.0248H56.3908V30.2242C56.3908 33.476 54.1239 33.8956 53.1186 33.8956C52.1132 33.8956 49.8481 33.4847 49.8481 30.2242V20.0248Z" fill="white"/>
</g>
</svg>
