<svg width="179" height="43" viewBox="0 0 179 43" fill="none" xmlns="http://www.w3.org/2000/svg">
<g opacity="0.4">
<g clip-path="url(#clip0_4_564)">
<path d="M163.704 12.1828H167.004V24.241H174V27.262H163.704V12.1828ZM157.653 27.262H160.953V12.1828H157.653V27.262ZM143.276 24.9579C145.08 26.5707 147.369 27.3644 149.646 27.3644C152.882 27.3644 155.159 25.6875 155.159 22.6921V22.6537C155.159 20.0296 153.445 18.9288 150.401 18.1351C147.804 17.4695 147.165 17.1495 147.165 16.151V16.1126C147.165 15.383 147.83 14.7941 149.096 14.7941C150.362 14.7941 151.667 15.3574 152.997 16.279L154.711 13.7829C153.189 12.554 151.322 11.8628 149.134 11.8628C146.065 11.8628 143.877 13.6677 143.877 16.407V16.4454C143.877 19.4408 145.822 20.2856 148.853 21.0537C151.36 21.6937 151.872 22.1289 151.872 22.9738V23.0122C151.872 23.8954 151.053 24.433 149.71 24.433C147.996 24.433 146.576 23.7162 145.233 22.6025L143.276 24.9579ZM142.611 27.3132L136.177 12.1316H133.133L126.699 27.3132H130.063L134.604 16.1126L136.573 20.9769H133.926L132.749 23.8954H137.75L139.132 27.3132H142.611ZM103.112 12.1828C107.832 12.1828 111.081 15.4342 111.081 19.684V19.7224C111.081 23.9594 107.819 27.262 103.112 27.262H97.957V12.1828H103.112ZM107.64 19.7224C107.64 17.0471 105.824 15.1782 103.112 15.1782H101.257V24.2666H103.112C105.811 24.2666 107.64 22.4361 107.64 19.7608V19.7224ZM90.5893 19.4152V22.0137H92.137V23.6138C91.3056 24.2154 90.2311 24.5226 89.0288 24.5226C86.3682 24.5226 84.4879 22.5001 84.4879 19.7352V19.684C84.4879 17.1239 86.3938 14.9862 88.7985 14.9862C90.5381 14.9862 91.5614 15.5494 92.7254 16.5094L94.8104 13.9877C93.2499 12.6564 91.6126 11.914 88.9137 11.914C84.3728 11.914 81.0471 15.4214 81.0471 19.7096V19.748C81.0471 24.2026 84.2577 27.5052 88.9392 27.5052C91.6765 27.5052 93.7999 26.4299 95.3476 25.1115V19.3896H90.5893V19.4152ZM74.1015 19.4152V22.0137H75.662V23.6138C74.8306 24.2154 73.7561 24.5226 72.5538 24.5226C69.8932 24.5226 68.0129 22.5001 68.0129 19.7352V19.684C68.0129 17.1239 69.9188 14.9862 72.3235 14.9862C74.0631 14.9862 75.0864 15.5494 76.2504 16.5094L78.3354 13.9877C76.7748 12.6564 75.1376 11.914 72.4386 11.914C67.8978 11.914 64.5721 15.4214 64.5721 19.7096V19.748C64.5721 24.2026 67.7827 27.5052 72.4642 27.5052C75.2015 27.5052 77.3249 26.4299 78.8726 25.1115V19.3896H74.1015V19.4152ZM55.8485 27.262H59.1486V22.3977L64.9174 12.1828H61.1696L57.5242 18.8903L53.9426 12.1828H50.0797L55.8485 22.4617V27.262ZM122.017 21.8729C123.923 21.1561 125.228 19.6328 125.228 17.2007V17.1623C125.228 15.7414 124.78 14.5509 123.936 13.7189C122.951 12.7332 121.467 12.1956 119.561 12.1956H113.204V27.2748H116.504V15.191H119.293C120.904 15.191 121.889 15.9206 121.889 17.3415V17.3799C121.889 18.6471 120.968 19.5176 119.357 19.5176H117.732V22.4489H118.602L121.812 27.2748H125.675L122.017 21.8729Z" fill="white"/>
<path d="M42.0728 22.3173C41.9705 23.9813 41.6763 25.6325 41.1646 27.2581C33.2081 26.7845 26.1086 23.1877 21.0302 17.6837C15.9647 23.1877 8.85239 26.7845 0.908648 27.2581C0.409765 25.6581 0.102762 23.9941 0.000427246 22.3173C2.66113 22.2277 5.2195 21.7029 7.61158 20.8325C5.50092 19.0789 3.04489 17.7093 0.37139 16.8517C0.691186 15.2389 1.20286 13.6517 1.9192 12.1157C5.91026 13.3957 9.49198 15.5973 12.4085 18.4517C14.1866 17.3253 15.8112 15.9685 17.2438 14.4325C12.3318 13.5749 7.98254 11.1045 4.77179 7.57174C5.8463 6.26614 7.06153 5.11414 8.3663 4.12854C10.2595 6.24054 12.6644 7.86614 15.389 8.82614C14.4168 6.47094 13.7389 3.94934 13.3935 1.32534C14.9669 0.723742 16.5915 0.30134 18.2544 0.0837402C18.5998 3.33494 19.5592 6.39414 21.0302 9.14614C22.5013 6.39414 23.4607 3.33494 23.8061 0.0837402C25.4562 0.30134 27.0808 0.710941 28.667 1.33814C28.3216 3.96214 27.6436 6.47094 26.6714 8.83894C29.3961 7.87894 31.801 6.25334 33.6942 4.14134C35.0501 5.16534 36.2525 6.31734 37.2887 7.57174C34.0779 11.1045 29.7287 13.5877 24.8166 14.4453C26.2493 15.9813 27.8739 17.3253 29.6519 18.4645C32.5813 15.5973 36.163 13.4085 40.1413 12.1285C40.8448 13.6389 41.3565 15.2389 41.6891 16.8645C39.0156 17.7221 36.5595 19.0917 34.4489 20.8453C36.841 21.7029 39.3993 22.2149 42.0728 22.3173ZM23.5246 41.9397V34.8613L30.6753 25.5429C29.1403 24.8645 27.6564 24.0581 26.2493 23.1365L21.043 29.9205L15.8367 23.1365C14.4296 24.0581 12.9458 24.8645 11.4108 25.5429L18.5614 34.8613V41.9397C20.2116 42.1317 21.8745 42.1317 23.5246 41.9397Z" fill="white"/>
</g>
</g>
<defs>
<clipPath id="clip0_4_564">
<rect width="174" height="42" fill="white" transform="translate(0.000427246 0.0837402)"/>
</clipPath>
</defs>
</svg>
